<?xml version="1.0" encoding="UTF-8" standalone="no"?>
<!-- Created with Inkscape (http://www.inkscape.org/) -->

<svg
   width="24"
   height="24"
   viewBox="0 0 24 24"
   version="1.1"
   id="svg5"
   xml:space="preserve"
   inkscape:version="1.2.1 (9c6d41e, 2022-07-14)"
   sodipodi:docname="icon 4.svg"
   inkscape:export-filename="icon 4.png"
   inkscape:export-xdpi="96"
   inkscape:export-ydpi="96"
   xmlns:inkscape="http://www.inkscape.org/namespaces/inkscape"
   xmlns:sodipodi="http://sodipodi.sourceforge.net/DTD/sodipodi-0.dtd"
   xmlns="http://www.w3.org/2000/svg"
   xmlns:svg="http://www.w3.org/2000/svg"><sodipodi:namedview
     id="namedview7"
     pagecolor="#ffffff"
     bordercolor="#999999"
     borderopacity="1"
     inkscape:showpageshadow="0"
     inkscape:pageopacity="0"
     inkscape:pagecheckerboard="0"
     inkscape:deskcolor="#d1d1d1"
     inkscape:document-units="px"
     showgrid="true"
     showborder="true"
     inkscape:zoom="9.5144352"
     inkscape:cx="3.468414"
     inkscape:cy="18.655863"
     inkscape:window-width="1431"
     inkscape:window-height="745"
     inkscape:window-x="42"
     inkscape:window-y="38"
     inkscape:window-maximized="0"
     inkscape:current-layer="layer1"><inkscape:grid
       type="xygrid"
       id="grid1049"
       originx="0"
       originy="0" /></sodipodi:namedview><defs
     id="defs2" /><g
     inkscape:label="Livello 1"
     inkscape:groupmode="layer"
     id="layer1"><path
       d="M 16.270573,10.778079 V 24 H 7.729425 l 2.98e-4,-13.517232 c 0,0 1.75665,1.188636 3.078051,0 1.241583,-1.1168376 5.462801,0.295314 5.462801,0.295314 z M 10.211231,8.562048 c 0.06506,0.07956 0.162922,0.12564 0.266771,0.12564 h 0.677671 c -0.0567,0 -0.107428,-0.032002 -0.131585,-0.082188 -0.446707,-0.93438 -0.497652,-1.8637853 -0.229473,-2.428271 0.268179,-0.5644863 0.836857,-1.1111208 1.512594,-1.1756799 -0.182065,0.4918056 -0.371925,0.6932074 -0.01343,1.1278316 1.202558,1.2505363 0.211567,2.4928536 0.20172,2.5051814 -0.02805,0.033754 -0.06952,0.053424 -0.113694,0.053424 h 0.985309 c 0.132492,0 0.253342,-0.075148 0.309741,-0.193451 1.052742,-2.201354 1.235064,-4.1264757 0.540684,-5.7207621 -0.480335,-1.1412857 -2.200912,-2.86186362 -3.561721,-2.77026005 0.787283,0.4819224 0.787283,1.62897435 0.02989,2.65665495 -2.833919,2.946392 -0.49833,5.8725286 -0.474458,5.901884 z"
       id="path3"
       inkscape:connector-curvature="0"
       style="stroke-width:1.6059"
       sodipodi:nodetypes="ccccscccscczccccscccccc" /></g></svg>
